<?xml version="1.0" encoding="iso-8859-1"?>
<!-- Generator: Adobe Illustrator 22.1.0, SVG Export Plug-In . SVG Version: 6.00 Build 0)  -->
<svg version="1.1" xmlns="http://www.w3.org/2000/svg" xmlns:xlink="http://www.w3.org/1999/xlink" x="0px" y="0px"
	 viewBox="0 0 50 50" style="enable-background:new 0 0 50 50;" xml:space="preserve">
<g id="Layer_1">
	<path d="M48.882,22.585l-4.271-1.412c-0.176-0.909-0.415-1.804-0.714-2.673l2.999-3.363l-0.293-0.603
		c-0.507-1.044-1.095-2.059-1.746-3.017l-0.376-0.553l-4.391,0.914c-0.61-0.701-1.269-1.359-1.968-1.969l0.913-4.391l-0.553-0.376
		c-0.964-0.655-1.979-1.242-3.019-1.746l-0.602-0.291L31.5,6.104c-0.871-0.299-1.766-0.538-2.673-0.714l-1.412-4.271L26.748,1.07
		c-1.158-0.084-2.338-0.084-3.496,0l-0.667,0.048L21.173,5.39c-0.906,0.176-1.802,0.415-2.673,0.714l-3.363-2.999l-0.603,0.293
		c-1.044,0.507-2.059,1.095-3.017,1.746L10.965,5.52l0.914,4.391c-0.701,0.61-1.359,1.269-1.969,1.968L5.52,10.965l-0.376,0.553
		c-0.655,0.964-1.242,1.979-1.746,3.019l-0.291,0.602L6.104,18.5c-0.299,0.871-0.538,1.766-0.714,2.673l-4.271,1.412L1.07,23.252
		C1.028,23.831,1,24.411,1,25s0.028,1.169,0.07,1.748l0.048,0.667l4.271,1.412c0.176,0.909,0.415,1.804,0.714,2.673l-2.999,3.363
		l0.293,0.603c0.507,1.044,1.095,2.059,1.746,3.017l0.376,0.553l4.391-0.914c0.61,0.701,1.269,1.359,1.968,1.969l-0.913,4.391
		l0.553,0.376c0.964,0.655,1.979,1.242,3.019,1.746l0.602,0.291l3.362-2.997c0.871,0.299,1.766,0.538,2.673,0.714l1.412,4.271
		l0.667,0.048C23.831,48.972,24.411,49,25,49s1.169-0.028,1.748-0.07l0.667-0.048l1.412-4.271c0.909-0.176,1.804-0.415,2.673-0.714
		l3.363,2.999l0.603-0.293c1.044-0.507,2.059-1.095,3.017-1.746l0.553-0.376l-0.914-4.391c0.701-0.61,1.359-1.269,1.969-1.968
		l4.391,0.913l0.376-0.553c0.655-0.964,1.242-1.979,1.746-3.019l0.291-0.602L43.896,31.5c0.299-0.871,0.538-1.767,0.714-2.673
		l4.271-1.412l0.048-0.667C48.972,26.169,49,25.589,49,25s-0.028-1.169-0.07-1.748L48.882,22.585z M46.976,25.938l-4.135,1.367
		l-0.098,0.599c-0.191,1.183-0.503,2.348-0.925,3.463l-0.214,0.566l2.898,3.252c-0.287,0.55-0.601,1.091-0.936,1.617l-4.247-0.884
		l-0.384,0.47c-0.76,0.928-1.617,1.785-2.549,2.548l-0.47,0.384l0.885,4.247c-0.525,0.334-1.065,0.647-1.617,0.937l-3.252-2.9
		l-0.567,0.216c-1.11,0.421-2.275,0.731-3.462,0.924l-0.599,0.098l-1.367,4.135c-0.621,0.031-1.256,0.031-1.877,0l-1.367-4.135
		l-0.599-0.098c-1.184-0.191-2.349-0.503-3.462-0.925l-0.567-0.215l-3.252,2.899c-0.55-0.287-1.091-0.601-1.617-0.936l0.884-4.247
		l-0.47-0.384c-0.928-0.76-1.785-1.617-2.548-2.549l-0.384-0.47l-4.247,0.885c-0.334-0.525-0.647-1.065-0.937-1.617l2.9-3.252
		l-0.216-0.567c-0.421-1.11-0.731-2.275-0.924-3.462l-0.098-0.599l-4.135-1.367C3.009,25.628,3,25.315,3,25s0.009-0.628,0.024-0.938
		l4.135-1.367l0.098-0.599c0.191-1.184,0.503-2.349,0.925-3.462l0.215-0.567l-2.899-3.252c0.287-0.55,0.601-1.091,0.936-1.617
		l4.247,0.884l0.384-0.47c0.76-0.928,1.617-1.785,2.549-2.548l0.47-0.384l-0.885-4.247c0.525-0.334,1.065-0.647,1.617-0.937
		l3.252,2.899l0.566-0.214c1.115-0.422,2.28-0.733,3.463-0.925l0.599-0.098l1.367-4.135c0.621-0.031,1.256-0.031,1.877,0
		l1.367,4.135l0.599,0.098c1.184,0.191,2.349,0.503,3.462,0.925l0.567,0.215l3.252-2.899c0.55,0.287,1.091,0.601,1.617,0.936
		l-0.884,4.247l0.47,0.384c0.928,0.76,1.785,1.617,2.548,2.549l0.384,0.47l4.247-0.885c0.334,0.525,0.647,1.065,0.937,1.617
		l-2.9,3.252l0.216,0.567c0.421,1.11,0.731,2.275,0.924,3.462l0.098,0.599l4.135,1.367C46.991,24.372,47,24.685,47,25
		S46.991,25.628,46.976,25.938z"/>
	<path d="M24.709,11.004c-5.189,0.147-9.542,4.488-9.703,9.677c-0.096,3.021,1.162,5.89,3.448,7.869C20.072,29.95,21,31.911,21,34v1
		v4h3v2h2v-2h3v-4.068v-1c0-2,0.947-3.979,2.599-5.428C33.761,26.606,35,23.872,35,21c0-2.726-1.076-5.272-3.031-7.172
		C30.015,11.929,27.429,10.955,24.709,11.004z M27,37h-4v-2h4V37z M30.28,27c-1.82,1.598-2.963,3.726-3.223,6H26v-9.586l2.707-2.707
		l-1.414-1.414L25,21.586l-2.293-2.293l-1.414,1.414L24,23.414V33h-1.05c-0.245-2.261-1.376-4.395-3.188-5.962
		c-1.829-1.584-2.834-3.878-2.758-6.295c0.129-4.15,3.61-7.622,7.761-7.739c2.188-0.075,4.246,0.738,5.81,2.258
		C32.139,16.782,33,18.819,33,21C33,23.296,32.009,25.483,30.28,27z"/>
</g>
<g>
</g>
</svg>
