<?xml version="1.0" encoding="utf-8"?>
<!-- Generator: Adobe Illustrator 25.4.1, SVG Export Plug-In . SVG Version: 6.00 Build 0)  -->
<svg version="1.1" id="Layer_1" xmlns="http://www.w3.org/2000/svg" xmlns:xlink="http://www.w3.org/1999/xlink" x="0px" y="0px"
	 viewBox="0 0 64 64" style="enable-background:new 0 0 64 64;" xml:space="preserve">
<path d="M58.75,13.4667969h-3.2124023v-3.2119141c0-0.5527344-0.4477539-1-1-1H37.8974609
	c-2.484314,0-4.6769409,1.3032837-5.897644,3.3493042c-1.2213745-2.0466309-3.4135742-3.3493042-5.8972778-3.3493042H9.4624023
	c-0.5522461,0-1,0.4472656-1,1v3.2119141H5.25c-0.5522461,0-1,0.4472656-1,1v39.2783203c0,0.5527344,0.4477539,1,1,1h53.5
	c0.5522461,0,1-0.4472656,1-1V14.4667969C59.75,13.9140625,59.3022461,13.4667969,58.75,13.4667969z M10.4624023,45.1660156
	h15.8505859c0.303894,0,0.5994873,0.0341797,0.8874512,0.0897217c0.0939331,0.0181274,0.1824341,0.0499268,0.274353,0.0736084
	c0.1898193,0.0488281,0.3776855,0.1021118,0.5574341,0.1734009c0.1020508,0.0404663,0.1989746,0.09021,0.2973633,0.1375732
	c0.1594238,0.0766602,0.3154907,0.1587524,0.4643555,0.2523193c0.0953979,0.0599976,0.1876221,0.1242676,0.2782593,0.1907959
	c0.1395874,0.1025391,0.2724609,0.2129517,0.3997192,0.3299561c0.081665,0.0750122,0.163269,0.1499634,0.2393799,0.2305908
	c0.1234131,0.1306763,0.2351074,0.2714844,0.3430786,0.4156494c0.0615845,0.0822754,0.1274414,0.1610718,0.1836548,0.2474365
	c0.1151123,0.1768188,0.2123413,0.3653564,0.3031006,0.5575562c0.0310669,0.0657349,0.0706787,0.1264648,0.0987549,0.1937866
	c0.1057739,0.2539673,0.1870728,0.5200806,0.2470703,0.7941284H10.4624023V45.1660156z M33.3601074,48.0584106
	c0.0280762-0.0673218,0.067688-0.1280518,0.0987549-0.1937866c0.0907593-0.1921997,0.1879883-0.3807373,0.3031006-0.5575562
	c0.0562134-0.0863647,0.1220703-0.1651611,0.1836548-0.2474365c0.1079712-0.144165,0.2196655-0.2849731,0.3430786-0.4156494
	c0.0761108-0.0806274,0.1577148-0.1555786,0.2393799-0.2305908c0.1272583-0.1170044,0.2601318-0.227417,0.3997192-0.3299561
	c0.0906372-0.0665283,0.1828613-0.1307983,0.2782593-0.1907959c0.1488647-0.0935669,0.3049316-0.1756592,0.4643555-0.2523193
	c0.0983887-0.0473633,0.1953125-0.0971069,0.2973633-0.1375732c0.1797485-0.0712891,0.3676147-0.1245728,0.5574341-0.1734009
	c0.0919189-0.0236816,0.1804199-0.055481,0.274353-0.0736084c0.2879639-0.055542,0.5835571-0.0897217,0.8874512-0.0897217
	h15.8505859v3.6865234H33.1130371C33.1730347,48.5784912,33.2543335,48.3123779,33.3601074,48.0584106z M37.8974609,11.2548828
	h15.6401367v3.2119141v28.6992188H37.6870117c-0.2294312,0-0.4561768,0.0118408-0.6797485,0.0344849
	c-0.0412598,0.0041504-0.0809326,0.0133667-0.1219482,0.0183105c-0.078125,0.0093384-0.1544189,0.0231323-0.2316895,0.0352173
	c-0.1020508,0.0159302-0.2058105,0.0266113-0.3062744,0.0471191c-0.074585,0.0151978-0.1460571,0.0383301-0.2197266,0.0560303
	c-0.0117798,0.0028687-0.0234375,0.0061035-0.0352173,0.0089722c-0.0775146,0.019104-0.1549683,0.0371704-0.2313843,0.0588989
	c-0.0501709,0.0142822-0.1018677,0.0244751-0.1515503,0.039856c-0.0734253,0.0227661-0.1432495,0.0529175-0.2155151,0.078125
	c-0.0942383,0.0328979-0.1887817,0.0649414-0.2810669,0.1018677c-0.0265503,0.0106201-0.0545044,0.0183105-0.0808716,0.0292969
	c-0.0116577,0.0048218-0.0233154,0.0095215-0.0349121,0.0144043c-0.0701904,0.0296021-0.1364746,0.06604-0.2054443,0.0979004
	c-0.126709,0.0585938-0.2543945,0.1154785-0.3766479,0.1817017c-0.026123,0.0141602-0.0508423,0.0305176-0.0767822,0.0450439
	c-0.0593872,0.0332031-0.1156006,0.0704956-0.1738892,0.1054077c-0.1000977,0.0599365-0.2019653,0.1170654-0.298584,0.1820068
	c-0.0593872,0.039917-0.114502,0.0852661-0.1725464,0.1270142c-0.0637207,0.0458374-0.1268311,0.0916138-0.1888428,0.1396484
	c-0.0500488,0.0388184-0.102356,0.074707-0.1513062,0.1148682c-0.0703125,0.0577393-0.1351929,0.1213989-0.203125,0.1818848
	c-0.0360718,0.0321045-0.0724487,0.0636597-0.1077881,0.0964966c-0.0375366,0.0348511-0.0775757,0.0666504-0.1142578,0.102356
	C33.0189819,45.0716553,33.0089111,45.0791626,33,45.0878906V16.1523438c0-0.4814453,0.0678711-0.9521484,0.2026367-1.4003906
	C33.8251953,12.6601562,35.7119141,11.2548828,37.8974609,11.2548828z M10.4624023,11.2548828h15.6401367
	c2.1855469,0,4.0722656,1.4052734,4.6958008,3.5C30.9321289,15.2001953,31,15.6708984,31,16.1523438v28.9355469
	c-0.0089111-0.008728-0.0189819-0.0162354-0.0278931-0.0249634c-0.0366821-0.0357056-0.0767212-0.0675049-0.1142578-0.102356
	c-0.0353394-0.0328369-0.0717163-0.0643921-0.1077881-0.0964966c-0.0679321-0.0604858-0.1328125-0.1241455-0.203125-0.1818848
	c-0.0489502-0.0401611-0.1012573-0.0760498-0.1513062-0.1148682c-0.0620117-0.0480347-0.1251221-0.093811-0.1888428-0.1396484
	c-0.0580444-0.041748-0.1131592-0.0870972-0.1725464-0.1270142c-0.0966187-0.0649414-0.1984863-0.1220703-0.298584-0.1820068
	c-0.0582886-0.0349121-0.114502-0.0722046-0.1738892-0.1054077c-0.0259399-0.0145264-0.0506592-0.0308838-0.0767822-0.0450439
	c-0.1222534-0.0662231-0.249939-0.1231079-0.3766479-0.1817017c-0.0689697-0.0318604-0.1352539-0.0682983-0.2054443-0.0979004
	c-0.0115967-0.0048828-0.0232544-0.0095825-0.0349121-0.0144043c-0.0263672-0.0109863-0.0543213-0.0186768-0.0808716-0.0292969
	c-0.0922852-0.0369263-0.1868286-0.0689697-0.2810669-0.1018677c-0.0722656-0.0252075-0.1420898-0.0553589-0.2155151-0.078125
	c-0.0496826-0.0153809-0.1013794-0.0255737-0.1515503-0.039856c-0.076416-0.0217285-0.1538696-0.0397949-0.2313843-0.0588989
	c-0.0117798-0.0028687-0.0234375-0.0061035-0.0352173-0.0089722c-0.0736694-0.0177002-0.1451416-0.0408325-0.2197266-0.0560303
	c-0.1004639-0.0205078-0.2042236-0.031189-0.3062744-0.0471191c-0.0772705-0.012085-0.1535645-0.0258789-0.2316895-0.0352173
	c-0.0410156-0.0049438-0.0806885-0.0141602-0.1219482-0.0183105c-0.2235718-0.022644-0.4503174-0.0344849-0.6797485-0.0344849
	H10.4624023V14.4667969V11.2548828z M57.75,52.7451172H6.25V15.4667969h2.2124023v28.6992188v5.6865234c0,0.5527344,0.4477539,1,1,1
	H32h22.5375977c0.5522461,0,1-0.4472656,1-1v-5.6865234V15.4667969H57.75V52.7451172z"/>
<path d="M13.875,21.375H27.5c0.5522461,0,1-0.4472656,1-1s-0.4477539-1-1-1H13.875c-0.5522461,0-1,0.4472656-1,1
	S13.3227539,21.375,13.875,21.375z"/>
<path d="M13.875,26.125H27.5c0.5522461,0,1-0.4472656,1-1s-0.4477539-1-1-1H13.875c-0.5522461,0-1,0.4472656-1,1
	S13.3227539,26.125,13.875,26.125z"/>
<path d="M13.875,30.875H27.5c0.5522461,0,1-0.4472656,1-1s-0.4477539-1-1-1H13.875c-0.5522461,0-1,0.4472656-1,1
	S13.3227539,30.875,13.875,30.875z"/>
<path d="M37.125,28.25H50.75c0.5522461,0,1-0.4472656,1-1s-0.4477539-1-1-1H37.125c-0.5522461,0-1,0.4472656-1,1
	S36.5727539,28.25,37.125,28.25z"/>
<path d="M37.125,33H50.75c0.5522461,0,1-0.4472656,1-1s-0.4477539-1-1-1H37.125c-0.5522461,0-1,0.4472656-1,1
	S36.5727539,33,37.125,33z"/>
<path d="M37.125,37.75H50.75c0.5522461,0,1-0.4472656,1-1s-0.4477539-1-1-1H37.125c-0.5522461,0-1,0.4472656-1,1
	S36.5727539,37.75,37.125,37.75z"/>
</svg>
