<?xml version="1.0" encoding="UTF-8" standalone="no"?> <svg xmlns="http://www.w3.org/2000/svg" width="512.003" height="512" viewBox="0 0 512.003 512">
  <g id="_8_-_Teach" data-name="8 - Teach" transform="translate(0.001)">
    <g id="Layer_x0020_1">
      <path id="Path_278" data-name="Path 278" d="M85.364,451.132a6,6,0,1,0-12,0c0,2.79-.725,4.876-2.154,6.135-1.612,1.421-4.315,2.186-8.1,2.186a15.461,15.461,0,0,1-9.953-3.4,9.3,9.3,0,0,1-3.582-7.036V349.4a6,6,0,1,0-12,0v99.613a21.129,21.129,0,0,0,7.9,16.178,27.465,27.465,0,0,0,17.64,6.258c6.833,0,12.2-1.815,16.024-5.186,4.136-3.643,6.232-8.782,6.232-15.135Z"/>
      <path id="Path_279" data-name="Path 279" d="M66.421,214.416H14.806A2.811,2.811,0,0,0,12,217.222V352.7c0,11.274,13.659,16.784,21.533,8.91a12.585,12.585,0,0,0,3.713-8.91V255.275a6,6,0,0,1,12,0V352.7a24.555,24.555,0,0,1-7.228,17.4C26.68,385.433,0,374.705,0,352.7V217.222a14.858,14.858,0,0,1,14.807-14.806H189.054a23.241,23.241,0,0,1,16.465,6.841c.125.125.243.255.354.387a23.293,23.293,0,0,1-16.819,39.382H90.311a6,6,0,1,1,0-12h98.743A11.3,11.3,0,0,0,197.3,217.99c-.09-.08-.177-.162-.263-.248a11.271,11.271,0,0,0-7.98-3.326H66.421Z"/>
      <path id="Path_280" data-name="Path 280" d="M120.809,243.026a6,6,0,0,0-12,0v203.25a13.758,13.758,0,0,1-3.652,9.442,11.486,11.486,0,0,1-8.365,3.736h0a11.486,11.486,0,0,1-8.365-3.736,13.758,13.758,0,0,1-3.652-9.442V354.767a6,6,0,1,0-12,0v91.508a25.755,25.755,0,0,0,6.933,17.646,23.391,23.391,0,0,0,17.083,7.532h0a23.391,23.391,0,0,0,17.084-7.532,25.755,25.755,0,0,0,6.933-17.646V243.026Z"/>
      <path id="Path_281" data-name="Path 281" d="M72.007,120.447a38.16,38.16,0,1,1-26.982,11.177,38.045,38.045,0,0,1,26.982-11.177Zm18.5,19.662a26.158,26.158,0,1,0,7.662,18.5A26.079,26.079,0,0,0,90.5,140.109Z"/>
      <path id="Path_282" data-name="Path 282" d="M238.445,40.549H487.306a6,6,0,0,1,6,6v203.73a6,6,0,0,1-6,6H238.445a6,6,0,0,1-6-6V46.549a6,6,0,0,1,6-6Zm242.861,12H244.445v191.73H481.306V52.549Z"/>
      <path id="Path_283" data-name="Path 283" d="M237.313,244.278H490.37a21.571,21.571,0,0,1,15.284,6.35c.125.125.243.256.355.389A21.539,21.539,0,0,1,512,265.911v3.549a21.554,21.554,0,0,1-6.348,15.26l-4.243-4.219,4.244,4.241c-.125.125-.255.243-.389.355a21.538,21.538,0,0,1-14.9,5.994H237.313a21.554,21.554,0,0,1-15.26-6.348l4.219-4.243-4.241,4.244c-.125-.125-.243-.255-.356-.389a21.538,21.538,0,0,1-5.994-14.9v-3.549a21.554,21.554,0,0,1,6.348-15.26v-.022h0a21.571,21.571,0,0,1,15.283-6.35Zm253.057,12H237.313a9.6,9.6,0,0,0-6.8,2.835l-.012-.012a9.638,9.638,0,0,0-2.822,6.81v3.549a9.63,9.63,0,0,0,2.589,6.568l.243.229-.012.012h0a9.638,9.638,0,0,0,6.81,2.822H490.37a9.63,9.63,0,0,0,6.568-2.589l.229-.243.012.012h0A9.638,9.638,0,0,0,500,269.46v-3.549a9.628,9.628,0,0,0-2.585-6.565l-.248-.234a9.6,9.6,0,0,0-6.8-2.835Z"/>
      <path id="Path_284" data-name="Path 284" d="M315.216,286.9a5.974,5.974,0,1,0-11.391-3.609L252.248,444.628a5.974,5.974,0,1,0,11.391,3.609Z"/>
      <path id="Path_285" data-name="Path 285" d="M369.816,285.093a5.976,5.976,0,0,0-11.953,0L357.7,449.012a5.976,5.976,0,1,0,11.953,0Z"/>
      <path id="Path_286" data-name="Path 286" d="M414.5,282.685a5.974,5.974,0,1,0-11.391,3.609L454.69,447.633a5.974,5.974,0,1,0,11.391-3.609Z"/>
      <path id="Path_287" data-name="Path 287" d="M293.244,58.115H434.437a16.894,16.894,0,0,1,11.96,4.976l-4.219,4.243,4.241-4.244q.2.2.371.406A16.881,16.881,0,0,1,451.4,75.075V97a16.913,16.913,0,0,1-4.977,11.983c-.132.132-.269.256-.41.374a16.9,16.9,0,0,1-11.573,4.6H293.244A16.993,16.993,0,0,1,276.283,97V75.075A16.92,16.92,0,0,1,281.272,63.1l-.012-.012h0l0,0a16.919,16.919,0,0,1,11.979-4.972Zm141.193,12H293.244a4.946,4.946,0,0,0-3.5,1.462h0L285.5,67.335l4.219,4.243a4.927,4.927,0,0,0-1.439,3.5V97a4.993,4.993,0,0,0,4.961,4.961H434.437a4.931,4.931,0,0,0,3.28-1.233l.217-.229A4.946,4.946,0,0,0,439.4,97V75.075a4.976,4.976,0,0,0-1.254-3.3l-.206-.2.012-.012-.013-.013a4.975,4.975,0,0,0-3.5-1.437Z"/>
      <path id="Path_288" data-name="Path 288" d="M264.387,143.217a6,6,0,1,0,0,12H450.065a6,6,0,1,0,0-12H264.387Z"/>
      <path id="Path_289" data-name="Path 289" d="M266.965,178.033a6,6,0,1,0,0,12H452.643a6,6,0,1,0,0-12H266.965Z"/>
      <path id="Path_290" data-name="Path 290" d="M269.544,212.847a6,6,0,1,0,0,12H455.222a6,6,0,1,0,0-12Z"/>
      <path id="Path_291" data-name="Path 291" d="M162.3,238.338a5.988,5.988,0,1,0,7.453,9.376c34.794-27.626,121.85-93.526,122.1-93.715a5.991,5.991,0,1,0-7.219-9.562c-.25.189-87.3,66.084-122.334,93.9Z"/>
    </g>
    <rect id="Rectangle_21" data-name="Rectangle 21" width="512" height="512" fill="none"/>
  </g>
</svg>
